<svg xmlns="http://www.w3.org/2000/svg" id="Ebene_2" data-name="Ebene 2" viewBox="0 0 269.21 269.21" width="269.21" height="269.21"><defs>
    <style>
      .cls-1 {
        fill: none;
      }

      .cls-2 {
        fill: #1585a0;
      }

      .cls-3 {
        fill: #e5bb45;
      }
    </style>
  </defs><g id="Ebene_1-2" data-name="Ebene 1">
    <g>
      <rect class="cls-1" width="269.21" height="269.21" rx="4.61" ry="4.61"></rect>
      <g>
        <path class="cls-3" d="M132.07,234.57c4.62,6.47,8.85,11.98,12.12,16.08,1.88,2.35,6.9,8.34,6.9,8.34,0,0,5.02-5.99,6.9-8.34,3.38-4.24,7.79-10,12.59-16.75-7.04,1.07-14.3,1.77-21.89,1.77-5.69,0-11.2-.45-16.62-1.09Z"></path>
        <path class="cls-2" d="M166.22,53.71c15.57,3.1,29.09,11.23,40.37,24.2l32.55-30.05c-16.74-20.28-40.74-33.02-69.36-37.18,5.27,5.07,8.58,12.15,8.58,20.04,0,9.55-4.82,17.97-12.15,22.99Z"></path>
        <path class="cls-2" d="M81.39,122.36c0-35.57,21.6-61.8,53.76-68.43-7.52-4.99-12.49-13.51-12.49-23.21,0-8.15,3.56-15.42,9.15-20.51C72.45,17.47,30.06,62.01,30.06,122.36s42.63,105.14,102.01,112.21c-12.54-17.56-28.08-42.49-36.37-67.86-9.08-11.75-14.31-26.92-14.31-44.36Z"></path>
        <path class="cls-2" d="M206.51,166.58c-8.17,25.09-23.45,49.77-35.93,67.32,28.35-4.32,52.01-17.05,68.56-37.36l-32.63-29.96s.03-.03,0,0Z"></path>
        <path class="cls-3" d="M151.1,64.76c-33.79,0-61.21,31.04-61.21,69.37h-.03c0,10.55,2.25,21.6,5.84,32.59,12.43,16.1,32.11,25.76,55.8,25.76,21.87,0,40.31-8.74,55.01-25.9,3.56-10.94,5.8-21.94,5.8-32.45,0-38.32-27.42-69.37-61.21-69.37ZM177.96,125.68c0,1-.81,1.81-1.81,1.81h-17.24v33.74c0,1.03-.83,1.86-1.86,1.86h-11.45c-1.03,0-1.86-.83-1.86-1.86v-33.74h-17.24c-1,0-1.81-.81-1.81-1.81v-11.56c0-1,.81-1.81,1.81-1.81h17.24v-16.31c0-1.03.83-1.86,1.86-1.86h11.45c1.03,0,1.86.83,1.86,1.86v16.31h17.24c1,0,1.81.81,1.81,1.81v11.56Z"></path>
      </g>
    </g>
  </g></svg>