<svg xmlns="http://www.w3.org/2000/svg" id="Ebene_2" data-name="Ebene 2" viewBox="0 0 269.21 269.21" width="269.21" height="269.21"><defs>
    <style>
      .cls-1 {
        fill: none;
      }

      .cls-2 {
        fill: #1585a0;
      }

      .cls-3 {
        fill: #e5bb45;
      }
    </style>
  </defs><g id="Ebene_1-2" data-name="Ebene 1">
    <g>
      <rect class="cls-1" width="269.21" height="269.21" rx="4.61" ry="4.61"></rect>
      <g>
        <path class="cls-3" d="M132.16,230.84c4.45,6.22,8.51,11.53,11.66,15.48,1.81,2.27,6.64,8.03,6.64,8.03,0,0,4.83-5.76,6.64-8.03,3.26-4.08,7.5-9.62,12.12-16.13-6.78,1.03-13.76,1.7-21.07,1.7-5.47,0-10.78-.43-16-1.05Z"></path>
        <path class="cls-2" d="M165.04,56.74c14.99,2.99,28,10.81,38.87,23.3l31.34-28.92c-16.11-19.53-39.22-31.78-66.76-35.79,5.07,4.88,8.26,11.7,8.26,19.29,0,9.2-4.64,17.3-11.7,22.13Z"></path>
        <path class="cls-2" d="M83.38,122.82c0-34.24,20.79-59.49,51.75-65.87-7.24-4.8-12.02-13-12.02-22.34,0-7.85,3.43-14.84,8.81-19.74-57.14,6.99-97.95,49.86-97.95,107.95s41.03,101.21,98.19,108.02c-12.07-16.9-27.03-40.91-35.01-65.32-8.74-11.31-13.77-25.91-13.77-42.7Z"></path>
        <path class="cls-2" d="M203.83,165.38c-7.86,24.15-22.57,47.91-34.59,64.8,27.29-4.16,50.07-16.41,66-35.96l-31.41-28.84s.02-.03,0,0Z"></path>
        <path class="cls-3" d="M150.47,74.19c-28.27,0-58.91,23.07-58.91,59.96h-.03c0,10.16,2.17,20.8,5.62,31.37,11.96,15.49,30.91,24.79,53.72,24.79,21.06,0,38.81-8.41,52.95-24.93,3.43-10.53,5.58-21.12,5.58-31.24,0-36.89-29.35-59.96-58.94-59.96ZM176.34,130.76c0,.96-.78,1.74-1.74,1.74h-16.6v32.47c0,.99-.8,1.79-1.79,1.79h-11.03c-.99,0-1.79-.8-1.79-1.79v-32.47h-16.6c-.96,0-1.74-.78-1.74-1.74v-11.13c0-.96.78-1.74,1.74-1.74h16.6v-15.7c0-.99.8-1.79,1.79-1.79h11.03c.99,0,1.79.8,1.79,1.79v15.7h16.6c.96,0,1.74.78,1.74,1.74v11.13Z"></path>
      </g>
    </g>
  </g><style>@media (prefers-color-scheme: light) { :root { filter: none; } }
@media (prefers-color-scheme: dark) { :root { filter: none; } }
</style></svg>